<svg xmlns="http://www.w3.org/2000/svg" xmlns:xlink="http://www.w3.org/1999/xlink" style="enable-background:new 0 0 512 512" id="Capa_1" x="0" y="0" fill="#fff" stroke="#fff" stroke-width="15" version="1.1" viewBox="0 0 512 512" xml:space="preserve"><path d="M256,96c-88.224,0-160,71.776-160,160s71.776,160,160,160s160-71.776,160-160S344.224,96,256,96z M256,384 c-70.576,0-128-57.424-128-128s57.424-128,128-128s128,57.424,128,128S326.576,384,256,384z"/><rect width="32" height="64" x="240"/><rect width="32" height="64" x="240" y="448"/><rect width="64" height="32" x="448" y="240"/><rect width="64" height="32" y="240"/><rect width="67.887" height="32" x="374.064" y="71.995" transform="matrix(0.7071 -0.7071 0.7071 0.7071 57.2811 314.2776)"/><rect width="32" height="67.887" x="88.009" y="54.06" transform="matrix(0.7071 -0.7071 0.7071 0.7071 -31.7648 99.321)"/><rect width="67.887" height="32" x="70.067" y="407.995" transform="matrix(0.7071 -0.7071 0.7071 0.7071 -269.3453 197.7316)"/><rect width="32" height="67.887" x="391.993" y="390.064" transform="matrix(0.7071 -0.7071 0.7071 0.7071 -180.3201 412.6833)"/></svg>